<svg xmlns="http://www.w3.org/2000/svg" viewBox="0 0 1600 900" preserveAspectRatio="xMidYMid slice" aria-hidden="true">
  <defs>
    <linearGradient id="beam" x1="0" y1="0" x2="0" y2="1"><stop stop-color="#ffd166" stop-opacity="0"/><stop offset=".68" stop-color="#ffd166" stop-opacity=".2"/><stop offset="1" stop-color="#ffbb52" stop-opacity=".54"/></linearGradient>
    <linearGradient id="violet" x1="0" y1="0" x2="0" y2="1"><stop stop-color="#bc96e6" stop-opacity="0"/><stop offset="1" stop-color="#b04bd6" stop-opacity=".44"/></linearGradient>
    <linearGradient id="floor" x1="0" y1="0" x2="0" y2="1"><stop stop-color="#5f2877" stop-opacity=".2"/><stop offset="1" stop-color="#130718"/></linearGradient>
    <radialGradient id="light"><stop stop-color="#bc96e6" stop-opacity=".48"/><stop offset="1" stop-color="#bc96e6" stop-opacity="0"/></radialGradient>
  </defs>
  <ellipse cx="800" cy="710" rx="720" ry="210" fill="url(#light)"/>
  <path d="M0 140 290 770 0 850Z" fill="url(#violet)"/>
  <path d="M1600 120 1310 770 1600 870Z" fill="url(#violet)"/>
  <path d="M160 420 480 830 570 830Z" fill="url(#beam)"/>
  <path d="M1440 405 1110 830 1030 830Z" fill="url(#beam)"/>
  <path d="M335 210 660 850 720 850Z" fill="url(#violet)"/>
  <path d="M1275 205 930 850 875 850Z" fill="url(#violet)"/>
  <path d="M0 875Q240 785 455 830T800 800Q1050 840 1240 810T1600 860V900H0Z" fill="url(#floor)"/>
  <g fill="#14091b" opacity=".92">
    <path d="M0 830q18-37 42-18l16 88H0Zm50 70 8-72q10-35 34-31 26 1 32 33l9 70Zm84 0 12-50q11-25 27-21 18 2 27 29l7 42Zm80 0 12-95q12-32 32-29 26 3 31 34l10 90Zm94 0 8-56q10-30 29-31 24-1 30 35l5 52Zm78 0 11-75q10-35 34-33 22 2 30 36l7 72Zm91 0 11-53q13-32 35-31 19 1 29 34l9 50Zm98 0 10-79q9-32 31-31 22 1 31 34l12 76Zm93 0 10-59q13-31 34-31 23 1 34 35l10 55Zm89 0 13-72q10-34 32-33 23 0 32 34l12 71Zm91 0 11-58q9-28 29-31 22-2 34 29l10 60Zm95 0 8-74q11-36 34-33 23 2 32 35l9 72Zm92 0 10-57q11-28 30-28 21 0 30 29l8 56Zm86 0 13-83q9-31 31-31 24 0 33 34l11 80Zm95 0 11-54q8-32 28-33 20-2 32 30l9 57Zm88 0 8-82q9-33 30-32 24 1 32 34l11 80Zm94 0 9-54q12-29 33-27 18 1 29 27l10 54Zm91 0 10-84q10-34 33-32 23 2 32 35l10 81Zm94 0 11-62q12-31 33-29 22 2 30 29l10 62Zm89 0 10-69q11-31 31-30 24 1 32 35l7 64Z"/>
    <g fill="none" stroke="#14091b" stroke-width="19" stroke-linecap="round"><path d="M255 825 215 745m52 67 48-74M620 822l-44-85m60 74 48-81m286 88-48-78m60 79 51-84m280 93-35-80m51 70 46-76"/></g>
  </g>
</svg>
